<svg width="32" height="32" viewBox="0 0 32 32" fill="none" xmlns="http://www.w3.org/2000/svg">
  <defs>
    <linearGradient id="logo-gradient" x1="0%" y1="0%" x2="100%" y2="100%">
      <stop offset="0%" stop-color="#6366F1" />
      <stop offset="100%" stop-color="#2563EB" />
    </linearGradient>
    <linearGradient id="accent-gradient" x1="0%" y1="0%" x2="100%" y2="100%">
      <stop offset="0%" stop-color="#38BDF8" />
      <stop offset="100%" stop-color="#818CF8" />
    </linearGradient>
  </defs>
  <!-- Modern Document/PDF Shape -->
  <path d="M8 4C6.89543 4 6 4.89543 6 6V26C6 27.1046 6.89543 28 8 28H24C25.1046 28 26 27.1046 26 26V12L18 4H8Z" fill="url(#logo-gradient)"/>
  <path d="M26 12H18V4L26 12Z" fill="white" fill-opacity="0.3"/>

  <!-- Stylized Quill / Pen Icon -->
  <path d="M12 22L13.5 20.5M13.5 20.5C14.5 19.5 17 18.5 19 16C17.5 18 17.5 19.5 16 21L13.5 23.5L11 24.5L12 22Z" fill="white"/>
  <path d="M17 14.5C19 12.5 20.5 9 20.5 9C20.5 9 17 10.5 15 12.5" stroke="white" stroke-width="1.5" stroke-linecap="round"/>

  <!-- Colorful Accents -->
  <circle cx="26" cy="6" r="3" fill="url(#accent-gradient)" />
</svg>
